<svg width="20" height="20" viewBox="0 0 20 20" fill="none" xmlns="http://www.w3.org/2000/svg">
<g clip-path="url(#clip0)">
<path d="M19.1751 7.94328C19.4093 6.93745 20.1543 5.92995 20.1543 5.92995H16.811C14.9351 4.71745 12.6601 4.07495 10.1335 4.07495C7.5168 4.07495 5.1518 4.72495 3.28846 5.95078H0.154297C0.154297 5.95078 0.891797 6.93912 1.1293 7.93912C0.519297 8.77828 0.156797 9.79078 0.156797 10.9033C0.156797 13.6666 2.4043 15.91 5.1668 15.91C6.74263 15.91 8.14263 15.1725 9.06763 14.0316L10.1301 15.6283L11.206 14.015C11.681 14.6283 12.306 15.1283 13.0435 15.465C14.256 16.015 15.6201 16.0783 16.8701 15.615C19.4585 14.6533 20.7835 11.7641 19.8335 9.17662C19.6593 8.71328 19.4335 8.30078 19.1585 7.93912L19.1751 7.94328V7.94328ZM16.5326 14.67C15.5326 15.0408 14.4451 14.9991 13.4743 14.5508C12.7876 14.2316 12.2218 13.7325 11.8176 13.1116C11.6501 12.8625 11.5051 12.5925 11.3985 12.3025C11.2768 11.9733 11.2151 11.6333 11.1826 11.29C11.121 10.5966 11.2201 9.89578 11.5201 9.24578C11.9701 8.27578 12.771 7.53662 13.771 7.16578C15.846 6.40412 18.146 7.46662 18.9093 9.53328C19.6726 11.6008 18.6093 13.9041 16.5468 14.6691H16.5326V14.67ZM8.47596 13.1416C7.7568 14.2008 6.54096 14.9025 5.16513 14.9025C2.96013 14.9025 1.1643 13.1058 1.1643 10.905C1.1643 8.70412 2.96096 6.90328 5.16513 6.90328C7.3693 6.90328 9.16346 8.70412 9.16346 10.905C9.16346 11.0416 9.13846 11.1666 9.12346 11.3041C9.05596 11.98 8.8393 12.6175 8.47596 13.155V13.1416V13.1416ZM2.6243 10.8525C2.6243 12.22 3.73763 13.3283 5.10013 13.3283C6.46263 13.3283 7.57346 12.22 7.57346 10.8525C7.57346 9.48995 6.46263 8.38245 5.1018 8.38245C3.73846 8.38245 2.62596 9.48995 2.62596 10.8525H2.6243ZM12.6643 10.8525C12.6643 12.22 13.7718 13.3283 15.1376 13.3283C16.501 13.3283 17.6085 12.22 17.6085 10.8525C17.6085 9.48995 16.501 8.38245 15.1376 8.38245C13.7751 8.38245 12.6618 9.48995 12.6618 10.8525H12.6643ZM3.4793 10.8525C3.4793 9.95995 4.20346 9.23328 5.09263 9.23328C5.9793 9.23328 6.7168 9.96078 6.7168 10.8525C6.7168 11.7491 5.99263 12.4783 5.09263 12.4783C4.1918 12.4783 3.4668 11.7491 3.4668 10.8525H3.4793V10.8525ZM13.5068 10.8525C13.5068 9.95995 14.231 9.23328 15.131 9.23328C16.0193 9.23328 16.7451 9.96078 16.7451 10.8525C16.7451 11.7491 16.0201 12.4783 15.1185 12.4783C14.2193 12.4783 13.4943 11.7491 13.4943 10.8525H13.5068ZM10.1293 4.94995C11.9301 4.94995 13.5551 5.27412 14.981 5.91828C14.4435 5.93328 13.9185 6.02745 13.3926 6.21828C12.1301 6.68078 11.1301 7.60578 10.5801 8.82245C10.3176 9.37245 10.1801 9.95495 10.1293 10.5433C9.9418 7.97995 7.8293 5.94745 5.22846 5.89495C6.6543 5.28328 8.30513 4.94995 10.0926 4.94995H10.1293Z" fill="black"/>
</g>
<defs>
<clipPath id="clip0">
<path d="M0 0H20V20H0V0Z" fill="white"/>
</clipPath>
</defs>
</svg>
