<svg width="16" height="20" viewBox="0 0 16 20" fill="none" xmlns="http://www.w3.org/2000/svg">
<path d="M15.5919 15.1883C15.4744 15.9958 13.826 18.0908 13.0677 18.3942C12.8085 18.4975 12.5585 18.4725 12.3594 18.3192C12.231 18.2192 12.0977 18.015 10.3202 15.13L9.79269 14.27C9.58936 13.9617 9.62685 13.5558 9.87935 13.2458C10.1269 12.9467 10.4894 12.8342 10.8052 12.9542C10.8219 12.9642 12.1352 13.3967 12.1352 13.3967C15.1252 14.3792 15.2227 14.4167 15.3494 14.5117C15.5385 14.6667 15.626 14.9075 15.5869 15.1892H15.5919V15.1883ZM9.59936 10.7992C9.38769 10.4775 9.39102 10.0983 9.60935 9.83667L10.441 8.70417C12.2652 6.2175 12.3669 6.08667 12.4902 6C12.7035 5.8575 12.9652 5.85084 13.216 5.97334C13.9402 6.32501 15.4019 8.49751 15.4902 9.33084V9.35917C15.5144 9.64334 15.4027 9.87417 15.2019 10.0125C15.0652 10.1 14.9402 10.1508 11.541 10.9758C11.0035 11.1125 10.7044 11.1875 10.5285 11.25L10.5527 11.225C10.216 11.325 9.84102 11.1633 9.62852 10.8258L9.59936 10.7992ZM7.51269 9.51084C7.35019 9.56167 6.85519 9.71501 6.24686 8.72917C6.24686 8.72917 2.13769 2.26334 2.04102 2.06417C1.98269 1.83917 2.05352 1.58584 2.25352 1.38084C2.86519 0.746671 6.18435 -0.181662 7.05352 0.0300047C7.33685 0.103338 7.53186 0.280838 7.60019 0.533338C7.65019 0.812505 8.05436 6.81334 8.11269 8.15751C8.16769 9.30751 7.67519 9.46167 7.51269 9.51084ZM8.05519 16.0883C8.04602 19.2333 8.03936 19.3383 7.98769 19.4875C7.90019 19.7217 7.69936 19.8783 7.42019 19.9292C6.62019 20.0658 4.11435 19.1408 3.59186 18.5208C3.49185 18.3842 3.42935 18.2475 3.41685 18.11C3.40352 18.01 3.41686 17.91 3.45436 17.8217C3.51686 17.6592 3.60435 17.5342 5.85435 14.8967L6.51602 14.11C6.74186 13.8225 7.14102 13.735 7.51519 13.8842C7.87852 14.0217 8.10352 14.3342 8.07852 14.6717V16.0717L8.05519 16.0883ZM1.23602 14.0767C0.990188 14.0683 0.769355 13.9208 0.640188 13.6767C0.547688 13.4975 0.482688 13.2017 0.441855 12.8417C0.327688 11.7575 0.466022 10.1217 0.791022 9.60251C0.943522 9.36501 1.16602 9.23917 1.41185 9.24751C1.57435 9.24751 1.71936 9.29834 4.93602 10.6225L5.87769 10.9967C6.21436 11.1217 6.42269 11.4717 6.40269 11.8725C6.37769 12.26 6.15436 12.5592 5.82436 12.6475L4.48686 13.0725C1.49519 14.035 1.39602 14.06 1.23852 14.0475L1.23602 14.0767ZM13.7169 19.9975H13.7135L13.7094 20L13.7169 19.9975Z" fill="black"/>
</svg>
